<?xml version="1.0" encoding="UTF-8"?>
<svg id="Layer_1" xmlns="http://www.w3.org/2000/svg" xmlns:xlink="http://www.w3.org/1999/xlink" version="1.1" viewBox="0 0 350.8 129.4">
  <!-- Generator: Adobe Illustrator 29.5.1, SVG Export Plug-In . SVG Version: 2.1.0 Build 141)  -->
  <defs>
    <style>
      .st0 {
        fill: none;
      }

      .st1 {
        fill: #0d0d17;
      }

      .st2 {
        clip-path: url(#clippath);
      }
    </style>
    <clipPath id="clippath">
      <path class="st0" d="M58.5,93.3c-4.5,3.2-7.1,7.1-5.9,8.9,1.2,1.7,5.9.6,10.3-2.6,4.5-3.2,7.1-7.1,5.9-8.9-.4-.6-1.1-.8-2.1-.8,0,0,0,0-.1,0-2.1,0-5.1,1.2-8.1,3.4M46.4,83.5c-3.4,0-7.9,1-12.6,3-8.7,3.6-14.7,8.9-13.5,12,1.2,3,9.3,2.6,18-1,8.7-3.6,14.7-8.9,13.5-12-.6-1.3-2.5-2-5.2-2h-.2ZM73.7,82.9c-1.5,2.9-2,5.7-1.1,6.2.9.5,2.9-1.5,4.5-4.4,1.5-2.9,2-5.7,1.1-6.2-.1,0-.2,0-.3,0s0,0,0,0c-1,0-2.8,1.9-4.1,4.5M61.1,74.8c-3,1.7-4.5,4.6-3.5,6.4,1.1,1.9,4.3,1.9,7.3.2,3-1.7,4.5-4.6,3.5-6.4-.6-1-1.7-1.4-3.1-1.4h0c-1.3,0-2.8.4-4.2,1.2M72.1,70.9c-.9,1.5-.8,3.1.2,3.7.9.6,2.4-.3,3.2-1.7.9-1.5.8-3.1-.2-3.7-.2-.1-.4-.2-.7-.2-.8,0-1.8.8-2.6,1.9M61.1,64.5c0,1.8,1.6,3.2,3.7,3.2s3.7-1.4,3.7-3.2-1.6-3.2-3.7-3.2-3.7,1.5-3.7,3.2M36.5,64.5c0,4,4.5,7.2,10.1,7.2,5.6,0,10.1-3.2,10.1-7.2s-4.5-7.2-10.1-7.2-10.1,3.2-10.1,7.2M72.4,54.2c-.9.6-1,2.2-.2,3.7.9,1.5,2.3,2.3,3.2,1.7.9-.6,1-2.2.2-3.7-.7-1.2-1.7-1.9-2.6-1.9,0,0,0,0-.1,0-.2,0-.4,0-.5.2M57.8,47.6c-1.1,1.8.5,4.7,3.5,6.4,3,1.7,6.2,1.6,7.3-.2,1.1-1.8-.5-4.7-3.5-6.4-1.4-.8-2.9-1.2-4.2-1.2,0,0,0,0,0,0-1.4,0-2.6.5-3.1,1.4M72.6,39.7c-.9.5-.5,3.2,1.1,6.2,1.5,2.9,3.5,4.9,4.5,4.4.9-.5.5-3.2-1.1-6.2-1.4-2.6-3.1-4.5-4.2-4.5-.1,0-.2,0-.3,0M20.4,30.3c-1.2,3,4.8,8.4,13.5,12,8.7,3.6,16.7,4,18,1,1.2-3-4.8-8.4-13.5-12-4.8-2-9.4-3-12.8-3s-4.6.7-5.2,2M52.6,26.6c-1.2,1.7,1.4,5.7,5.9,8.9,4.5,3.2,9.1,4.4,10.3,2.6,1.2-1.7-1.4-5.7-5.9-8.9-3.1-2.2-6.2-3.4-8.3-3.4s-1.7.3-2.1.8"/>
    </clipPath>
  </defs>
  <path class="st1" d="M128.3,64.5c4.8,2.5,7.1,6.5,7.1,12.2s-1.7,8.5-5,11c-3.3,2.5-7.6,3.7-13,3.7h-19.5c-.3,0-.5,0-.6-.3-.2-.2-.3-.4-.3-.6v-50.8c0-.2,0-.5.3-.6.2-.2.4-.3.6-.3h18.9c11.9,0,17.8,4.8,17.8,14.4s-2.1,8.6-6.4,10.7c-.3.2-.3.3,0,.5M107.7,48.3v11.7c0,.3.1.4.4.4h8.8c2.4,0,4.2-.5,5.5-1.7,1.3-1.1,2-2.6,2-4.5s-.7-3.5-2-4.6c-1.3-1.1-3.1-1.7-5.5-1.7h-8.8c-.3,0-.4.1-.4.4M122.9,80.5c1.3-1.2,2-2.8,2-4.8s-.7-3.7-2-4.8c-1.3-1.2-3.1-1.8-5.5-1.8h-9.3c-.3,0-.4.1-.4.4v12.5c0,.3.1.4.4.4h9.4c2.3,0,4.1-.6,5.4-1.8"/>
  <path class="st1" d="M161.4,61c-.2.2-.4.3-.6.3h-7.2c-.3,0-.4.1-.4.4v15.9c0,1.7.3,2.9,1,3.7.7.8,1.8,1.2,3.3,1.2h2.5c.2,0,.5,0,.6.3.2.2.3.4.3.6v7.1c0,.6-.3.9-.9,1-2.1.1-3.6.2-4.5.2-4.2,0-7.3-.7-9.3-2.1-2.1-1.4-3.1-4-3.2-7.8v-20.1c0-.3-.1-.4-.4-.4h-4.3c-.3,0-.5,0-.6-.3-.2-.2-.3-.4-.3-.6v-6.7c0-.3,0-.5.3-.6.2-.2.4-.3.6-.3h4.3c.3,0,.4-.1.4-.4v-8.9c0-.2,0-.5.3-.6.2-.2.4-.3.6-.3h8.4c.3,0,.5,0,.6.3.2.2.3.4.3.6v8.9c0,.3.1.4.4.4h7.2c.2,0,.5,0,.6.3.2.2.3.4.3.6v6.7c0,.3,0,.5-.3.6"/>
  <path class="st1" d="M235.6,39.1c.2.2.3.4.3.6v7.4c0,.3,0,.5-.3.6-.2.2-.4.3-.6.3h-13.4c-.3,0-.4.1-.4.4v42.1c0,.3,0,.5-.3.6-.2.2-.4.3-.6.3h-8.8c-.3,0-.5,0-.6-.3-.2-.2-.3-.4-.3-.6v-42.1c0-.3-.1-.4-.4-.4h-13.1c-.3,0-.5,0-.6-.3-.2-.2-.3-.4-.3-.6v-7.4c0-.2,0-.5.3-.6.2-.2.4-.3.6-.3h37.9c.2,0,.5,0,.6.3"/>
  <path class="st1" d="M255.5,53.1c.2-.2.4-.3.6-.3h8.8c.2,0,.5,0,.6.3.2.2.3.4.3.6v36.8c0,.3,0,.5-.3.6-.2.2-.4.3-.6.3h-8.8c-.3,0-.5,0-.6-.3-.2-.2-.3-.4-.3-.6v-2.6c0-.2,0-.2-.2-.3-.1,0-.2,0-.3.2-2,2.7-5.1,4.1-9.3,4.1s-6.9-1.2-9.4-3.5c-2.5-2.3-3.7-5.5-3.7-9.7v-25.1c0-.3,0-.5.3-.6.2-.2.4-.3.6-.3h8.7c.2,0,.5,0,.6.3.2.2.3.4.3.6v22.5c0,2,.5,3.6,1.6,4.9,1.1,1.3,2.6,1.9,4.5,1.9s3.1-.5,4.2-1.5c1.1-1,1.8-2.4,2-4v-23.7c0-.3,0-.5.3-.6"/>
  <path class="st1" d="M294.2,53.3c.4.2.6.6.5,1.1l-1.6,8.6c0,.6-.4.8-1.1.5-.8-.2-1.6-.4-2.6-.4s-1,0-1.7.2c-1.8.2-3.3.8-4.6,2-1.3,1.2-1.9,2.7-1.9,4.7v20.5c0,.3,0,.5-.3.6-.2.2-.4.3-.6.3h-8.8c-.3,0-.5,0-.6-.3-.2-.2-.3-.4-.3-.6v-36.8c0-.3,0-.5.3-.6s.4-.3.6-.3h8.8c.2,0,.5,0,.6.3.2.2.3.4.3.6v2.9c0,.2,0,.3.2.3.1,0,.2,0,.2,0,2.1-3,4.8-4.5,8.3-4.5s3.2.4,4.3,1.1"/>
  <path class="st1" d="M297.8,91.2c-.2-.2-.3-.4-.3-.6v-50.8c0-.2,0-.5.3-.6.2-.2.4-.3.6-.3h8.8c.2,0,.5,0,.6.3.2.2.3.4.3.6v25.3c0,.2,0,.2.2.3s.2,0,.3-.1l10.2-11.9c.3-.3.7-.5,1.1-.5h10c.5,0,.8.2.8.5s0,.4-.2.6l-9.5,12.1c-.1.2-.1.4,0,.5l11.2,23.8c0,.2.1.4.1.5,0,.4-.3.6-.8.6h-9.2c-.5,0-.9-.2-1.1-.7l-7.4-17.6c0,0-.1-.2-.3-.2-.1,0-.2,0-.3.1l-4.8,6c-.1.2-.2.4-.2.5v11c0,.3,0,.5-.3.6s-.4.3-.6.3h-8.8c-.3,0-.5,0-.6-.3"/>
  <path class="st1" d="M58.5,93.3c-4.5,3.2-7.1,7.1-5.9,8.9,1.2,1.7,5.9.6,10.3-2.6,4.5-3.2,7.1-7.1,5.9-8.9-.4-.6-1.1-.8-2.1-.8,0,0,0,0-.1,0-2.1,0-5.1,1.2-8.1,3.4M33.9,86.5c-8.7,3.6-14.7,8.9-13.5,12,1.2,3,9.3,2.6,18-1,8.7-3.6,14.7-8.9,13.5-12-.6-1.3-2.5-2-5.2-2h-.2c-3.4,0-7.9,1-12.6,3M73.6,82.9c-1.5,2.9-2,5.7-1.1,6.2.9.5,2.9-1.5,4.5-4.4,1.5-2.9,2-5.7,1.1-6.2-.1,0-.2,0-.3,0s0,0,0,0c-1,0-2.8,1.9-4.1,4.5M61.1,74.8c-3,1.7-4.5,4.6-3.5,6.4,1.1,1.8,4.3,1.9,7.3.2,3-1.7,4.5-4.6,3.5-6.4-.6-1-1.7-1.4-3.1-1.4-1.3,0-2.8.4-4.2,1.2M72.1,70.9c-.9,1.5-.8,3.1.2,3.7.9.6,2.4-.3,3.2-1.7.9-1.5.8-3.1-.2-3.7-.2-.1-.4-.2-.7-.2-.8,0-1.8.8-2.6,1.9M61.1,64.5c0,1.8,1.6,3.2,3.7,3.2s3.7-1.4,3.7-3.2-1.6-3.2-3.7-3.2-3.7,1.5-3.7,3.2M36.5,64.5c0,4,4.5,7.2,10.1,7.2,5.6,0,10.1-3.2,10.1-7.2s-4.5-7.2-10.1-7.2-10.1,3.2-10.1,7.2M72.4,54.2c-.9.6-1,2.2-.2,3.7.9,1.5,2.3,2.3,3.2,1.7.9-.6,1-2.2.2-3.7-.7-1.2-1.7-1.9-2.6-1.9,0,0,0,0-.1,0-.2,0-.4,0-.5.2M57.8,47.6c-1.1,1.8.5,4.7,3.5,6.4,3,1.7,6.2,1.6,7.3-.2,1.1-1.8-.5-4.7-3.5-6.4-1.4-.8-2.9-1.2-4.2-1.2-1.4,0-2.6.5-3.1,1.4M72.6,39.7c-.9.5-.5,3.2,1.1,6.2,1.5,2.9,3.5,4.9,4.5,4.4.9-.5.5-3.2-1.1-6.2-1.4-2.6-3.1-4.5-4.2-4.5-.1,0-.2,0-.3,0M20.4,30.3c-1.2,3,4.8,8.4,13.5,12,8.7,3.6,16.7,4,18,1,1.2-3-4.8-8.4-13.5-12-4.8-1.9-9.4-3-12.8-3s-4.6.7-5.2,2M52.6,26.6c-1.2,1.7,1.4,5.7,5.9,8.9,4.5,3.2,9.1,4.4,10.3,2.6,1.2-1.7-1.4-5.7-5.9-8.9-3.1-2.2-6.2-3.4-8.3-3.4s-1.7.3-2.1.8"/>
  <g class="st2">
    <rect class="st1" x="19.2" y="25.9" width="59.9" height="78.1"/>
  </g>
  <path class="st1" d="M177.4,62.5c1.1-.8,2.4-1.2,4-1.2s3.1.4,4.3,1.3c1.2.8,2,1.9,2.3,3.2l.2,1.2c.1.5.4.7.9.7h.1l8.6-1.3c.5-.1.7-.4.7-.8h0c0-.7-.2-1.6-.6-2.8-1-3-3-5.6-6-7.6-3-2-6.5-3-10.5-3s-7.5,1-10.4,2.9c-2.9,1.9-5,4.6-6.2,8-.8,2.4-1.3,5.3-1.3,8.7s.4,6.3,1.3,8.8c1.2,3.5,3.3,6.2,6.3,8.2,2.9,2,6.4,3,10.4,3s7.4-.9,10.4-2.8c3-1.9,5.1-4.5,6.1-7.9.3-1.1.4-1.8.4-2.2s-.2-.7-.7-.8l-8.6-1.3c-.4,0-.6,0-.8.1-.2.2-.2.4-.3.6,0,0,0,0,0,.1,0,.2,0,.3,0,.4,0,0,0,0,0,.2-.4,1.4-1.3,2.6-2.4,3.4-1.2.8-2.5,1.2-4.1,1.2s-3-.4-4.1-1.3c-1.1-.8-1.9-2-2.4-3.5-.5-1.5-.7-3.5-.7-6.1s.3-4.6.8-6.1c.4-1.4,1.2-2.5,2.3-3.3"/>
</svg>